<svg xmlns="http://www.w3.org/2000/svg" xmlns:xlink="http://www.w3.org/1999/xlink" width="671" height="145" viewBox="0 0 671 145">
  <defs>
    <polygon id="logo_mmr-a" points=".115 34.76 62.67 34.76 62.67 .368 .115 .368"/>
    <polygon id="logo_mmr-c" points=".237 .076 .237 136.763 581.467 136.763 581.467 .076"/>
  </defs>
  <g fill="none" fill-rule="evenodd">
    <polygon fill="#000" points="273 144 277 144 277 1 273 1"/>
    <polyline fill="#000" points="317 1 327.597 1 335.453 26.01 335.547 26.01 343.403 1 354 1 354 34 347.66 34 347.66 6.767 347.565 6.767 338.668 34 332.328 34 323.435 6.767 323.34 6.861 323.34 34 317 34 317 1"/>
    <polygon fill="#000" points="364 34 371 34 371 1 364 1"/>
    <polyline fill="#000" points="380 1 388.091 1 400.603 25.679 400.697 25.679 400.697 1 407 1 407 34 398.956 34 386.397 9.321 386.303 9.321 386.303 34 380 34 380 1"/>
    <polygon fill="#000" points="416 34 423 34 423 1 416 1"/>
    <path fill="#000" d="M449.489762,6.59267814 C447.444383,5.7013512 445.166574,5.17911999 442.896514,5.17911999 C440.665191,5.17911999 437.783066,6.16861069 437.783066,9.74962467 C437.783066,15.4470493 452,13.0440005 452,24.0658275 C452,31.2710475 446.379081,34 439.828445,34 C436.295517,34 434.718871,33.528814 431.511345,32.7317242 L432.115661,26.7987065 C434.346984,28.0198637 436.899834,28.82088 439.456558,28.82088 C441.92031,28.82088 445.216934,27.5526042 445.216934,24.5841321 C445.216934,18.3173577 431,20.9088809 431,10.0323363 C431,2.68576048 436.620919,0 442.338683,0 C445.123962,0 447.727172,0.376948839 450.094079,1.17796512 L449.489762,6.59267814"/>
    <polyline fill="#000" points="466.632 6.199 457 6.199 457 1 483 1 483 6.199 473.368 6.199 473.368 34 466.632 34 466.632 6.199"/>
    <polyline fill="#000" points="490 1 509.907 1 509.907 6.199 496.765 6.199 496.765 14.331 508.799 14.331 508.799 19.534 496.765 19.534 496.765 28.797 510 28.797 510 34 490 34 490 1"/>
    <path fill="#000" d="M524.702349 15.0879991L526.907174 15.0879991C530.210417 15.0879991 533.996964 14.615002 533.996964 10.5038689 533.996964 6.53069322 530.262342 6.19959525 526.907174 6.19959525L524.702349 6.19959525 524.702349 15.0879991zM518 1.00056875L525.229589 1.00056875C532.415242 1.00056875 540.986899.7640702 540.986899 9.93627236 540.986899 13.810907 538.354689 17.0272873 534.092826 17.5948838L534.092826 17.6894832C535.910209 17.8313823 536.968685 19.6287713 537.635725 21.0911207L543 34 535.526761 34 531.500559 23.6926048C530.545934 21.2330199 529.683176 20.2909673 526.859243 20.2909673L524.702349 20.2909673 524.702349 34 518 34 518 1.00056875 518 1.00056875zM567.489762 6.59267814C565.444383 5.7013512 563.170448 5.17911999 560.896514 5.17911999 558.665191 5.17911999 555.783066 6.16861069 555.783066 9.74962467 555.783066 15.4470493 570 13.0440005 570 24.0658275 570 31.2710475 564.379081 34 557.828445 34 554.295517 34 552.718871 33.528814 549.511345 32.7317242L550.115661 26.7987065C552.346984 28.0198637 554.899834 28.82088 557.456558 28.82088 559.92031 28.82088 563.216934 27.5526042 563.216934 24.5841321 563.216934 18.3173577 549 20.9088809 549 10.0323363 549 2.68576048 554.620919 0 560.338683 0 563.123962 0 565.727172.376948839 568.094079 1.17796512L567.489762 6.59267814"/>
    <polyline fill="#000" points="584.63 6.199 575 6.199 575 1 601 1 601 6.199 591.37 6.199 591.37 34 584.63 34 584.63 6.199"/>
    <polyline fill="#000" points="604 1 611.187 1 619.76 26.909 619.864 26.909 628.345 1 635 1 623.739 34 615.501 34 604 1"/>
    <path fill="#000" d="M654.99805 28.82088C661.690555 28.82088 664.167093 22.8407437 664.167093 16.9077261 664.167093 11.1121377 661.499452 5.17911999 654.99805 5.17911999 648.500548 5.17911999 645.832907 11.1121377 645.832907 16.9077261 645.832907 22.8407437 648.309445 28.82088 654.99805 28.82088zM654.99805 0C665.23961 0 671 6.96962698 671 16.9077261 671 26.8418986 665.341012 34 654.99805 34 644.522486 34 639 26.9832544 639 16.9077261 639 6.82827116 644.612188 0 654.99805 0L654.99805 0zM323.580795 71.2701863L325.881525 71.2701863C329.173882 71.2701863 332.137003 70.1822742 332.137003 66.3548734 332.137003 62.5235308 329.267949 61.1991161 325.881525 61.1991161L323.580795 61.1991161 323.580795 71.2701863zM317 56L325.317121 56C332.46232 56 339 58.0812231 339 65.9764692 339 73.6825131 333.402993 76.4693024 326.351862 76.4693024L323.580795 76.4693024 323.580795 89 317 89 317 56 317 56zM352.705272 70.0879991L354.909744 70.0879991C358.21246 70.0879991 361.998403 69.615002 361.998403 65.5038689 361.998403 61.5306932 358.260383 61.1995952 354.909744 61.1995952L352.705272 61.1995952 352.705272 70.0879991zM346 56.0005688L353.232428 56.0005688C360.412939 56.0005688 368.98722 55.7640702 368.98722 64.9362724 368.98722 68.810907 366.355431 72.0272873 362.090256 72.5948838L362.090256 72.6894832C363.907348 72.8313823 364.965655 74.6287713 365.632588 76.0911207L371 89 363.527955 89 359.502396 78.6926048C358.547923 76.2330199 357.685304 75.2909673 354.861821 75.2909673L352.705272 75.2909673 352.705272 89 346 89 346 56.0005688 346 56.0005688zM392.001951 84.8248066C398.688285 84.8248066 401.169328 78.8407437 401.169328 72.9077261 401.169328 67.1121377 398.504937 61.17912 392.001951 61.17912 385.498964 61.17912 382.830672 67.1121377 382.830672 72.9077261 382.830672 78.8407437 385.311715 84.8248066 392.001951 84.8248066zM392.001951 56C402.249909 56 408 62.969627 408 72.9077261 408 82.8458252 402.339632 90 392.001951 90 381.519932 90 376 82.9832544 376 72.9077261 376 62.8282712 381.617457 56 392.001951 56L392.001951 56z"/>
    <polyline fill="#000" points="432 56 442.6 56 450.455 81.01 450.549 81.01 458.4 56 469 56 469 89 462.66 89 462.66 61.767 462.566 61.767 453.67 89 447.33 89 438.434 61.767 438.344 61.861 438.344 89 432 89 432 56"/>
    <path fill="#000" d="M483.189531 49L490 49 483.475451 54.1872972 479.234296 54.1872972 483.189531 49zM479 89L485.663538 89 485.663538 56.0750172 479 56.0750172 479 89zM512.490225 62.5926781C510.445223 61.7013512 508.167835 61.17912 505.894319 61.17912 503.663408 61.17912 500.785688 62.1686107 500.785688 65.7496247 500.785688 71.4470493 515 69.0440005 515 80.0658275 515 87.2710475 509.380118 90 502.83069 90 499.294541 90 497.718185 89.5327405 494.515124 88.7317242L495.115456 82.7987065C497.346367 84.0198637 499.902619 84.8248066 502.458871 84.8248066 504.918296 84.8248066 508.214312 83.5526042 508.214312 80.5841321 508.214312 74.3173577 494 76.9088809 494 66.0323363 494 58.6857605 499.619882 56 505.336592 56 508.125231 56 510.72796 56.3769488 513.09443 57.1779651L512.490225 62.5926781"/>
    <polyline fill="#000" points="529.634 61.199 520 61.199 520 56 546 56 546 61.199 536.37 61.199 536.37 89 529.634 89 529.634 61.199"/>
    <polyline fill="#000" points="552 56 560.087 56 572.603 80.679 572.697 80.679 572.697 56 579 56 579 89 570.96 89 558.393 64.321 558.303 64.321 558.303 89 552 89 552 56"/>
    <path fill="#000" d="M592.187071,49 L599,49 L592.477068,54.1872972 L588.238353,54.1872972 L592.187071,49 Z M588,89 L594.669917,89 L594.669917,56.0750172 L588,56.0750172 L588,89 Z"/>
    <g transform="translate(317 110)">
      <mask id="logo_mmr-b" fill="#fff">
        <use xlink:href="#logo_mmr-a"/>
      </mask>
      <path fill="#000" d="M6.73258824 15.236L8.90417647 15.236C12.1674706 15.236 15.8997647 14.76 15.8997647 10.584 15.8997647 6.556 12.2147647 6.22 8.90417647 6.22L6.73258824 6.22 6.73258824 15.236zM.115352941.936L7.25282353.936C14.3390588.936 22.8007647.704 22.8007647 10.008 22.8007647 13.94 20.2035294 17.204 15.9943529 17.78L15.9943529 17.876C17.7915294 18.02 18.832 19.844 19.4941176 21.328L24.7871176 34.428 17.4131765 34.428 13.4404706 23.968C12.4985294 21.472 11.6472353 20.516 8.85688235 20.516L6.73258824 20.516 6.73258824 34.428.115352941 34.428.115352941.936.115352941.936zM46.503 29.728C53.2621176 29.728 55.7647647 23.632 55.7647647 17.588 55.7647647 11.688 53.069 5.64 46.503 5.64 39.9291176 5.64 37.2372941 11.688 37.2372941 17.588 37.2372941 23.632 39.7399412 29.728 46.503 29.728zM46.503.368C56.8525294.368 62.6697059 7.464 62.6697059 17.588 62.6697059 27.712 56.9510588 35 46.503 35 35.9130588 35 30.3362941 27.852 30.3362941 17.588 30.3362941 7.32 36.0076471.368 46.503.368L46.503.368z" mask="url(#logo_mmr-b)"/>
    </g>
    <polyline fill="#000" points="386 138.608 401.587 116.206 386.622 116.206 386.622 111 408.667 111 408.667 116.396 392.938 138.798 409 138.798 409 144 386 144 386 138.608"/>
    <g transform="translate(0 8)">
      <mask id="logo_mmr-d" fill="#fff">
        <use xlink:href="#logo_mmr-c"/>
      </mask>
      <polyline fill="#000" points="413.2 103.423 420.298 103.423 428.77 129.343 428.865 129.343 437.238 103.423 443.82 103.423 432.701 136.436 424.56 136.436 413.2 103.423" mask="url(#logo_mmr-d)"/>
      <path fill="#000" d="M465.084973 131.803314C471.85227 131.803314 474.361892 125.7944 474.361892 119.836743 474.361892 114.021029 471.666811 108.059429 465.084973 108.059429 458.511027 108.059429 455.812 114.021029 455.812 119.836743 455.812 125.7944 458.317676 131.803314 465.084973 131.803314zM465.084973 102.862743C475.450973 102.862743 481.267297 109.857371 481.267297 119.836743 481.267297 129.816114 475.54173 137 465.084973 137 454.486162 137 448.898703 129.954114 448.898703 119.836743 448.898703 109.715429 454.580865 102.862743 465.084973 102.862743L465.084973 102.862743zM486.925784 130.663829C487.821514 130.995029 488.768541 131.2316 490.094378 131.2316 494.399405 131.2316 494.399405 127.7816 494.399405 125.419829L494.399405 103.422629 501.028595 103.422629 501.028595 128.582C501.028595 132.083257 498.75573 137 491.988432 137 490.189081 137 488.768541 136.862 486.925784 136.384914L486.925784 130.663829M538.767622 101.537943L534.363946 96.3333714 538.862324 96.3333714 541.892811 99.4088 544.919351 96.3333714 549.319081 96.3333714 544.919351 101.537943 538.767622 101.537943zM550.076703 135.959086C547.66573 136.5308 545.057459 137 542.551784 137 531.85827 137 524.428054 131.657429 524.428054 120.499143 524.428054 109.194971 531.337405 102.862743 542.551784 102.862743 544.726 102.862743 547.618378 103.284629 550.029351 104.234857L549.555838 109.810057C547.046216 108.390629 544.773351 108.059429 542.405784 108.059429 535.595081 108.059429 531.337405 113.264 531.337405 120.026 531.337405 126.744629 535.500378 131.803314 542.551784 131.803314 545.156108 131.803314 548.23 131.2316 549.788649 130.4312L550.076703 135.959086 550.076703 135.959086zM563.39427 117.518343L565.568486 117.518343C568.83573 117.518343 572.572541 117.049143 572.572541 112.9328 572.572541 108.962343 568.879135 108.631143 565.568486 108.631143L563.39427 108.631143 563.39427 117.518343zM556.765081 103.422629L563.911189 103.422629C571.006 103.422629 579.477946 103.193943 579.477946 112.365029 579.477946 116.240857 576.881514 119.458229 572.663297 120.026L572.663297 120.120629C574.466595 120.262571 575.508324 122.060514 576.171243 123.523314L581.466703 136.436171 574.083838 136.436171 570.11027 126.1256C569.167189 123.665257 568.310919 122.722914 565.521135 122.722914L563.39427 122.722914 563.39427 136.436171 556.765081 136.436171 556.765081 103.422629 556.765081 103.422629z" mask="url(#logo_mmr-d)"/>
      <path fill="#174489" d="M103.707351,46.6454857 C87.963027,46.9057143 72.1318919,49.9811429 56.0324324,53.6046286 C48.397027,55.3237143 41.100973,56.8811429 34.0653514,60.2562286 C22.5668649,65.7683429 7.32762162,76.0749714 7.72616216,94.91 C8.68502703,140.3672 107.515189,131.779657 131.640703,127.418857 C148.213676,124.430171 170.180757,119.288686 187.377189,111.710514 C201.665459,105.417714 214.032054,98.8686286 220.736216,92.7374857 C212.047243,94.4762857 195.198054,101.459086 177.393946,104.913029 C165.603459,107.203829 153.035622,108.690286 142.890595,108.453714 C119.988324,107.921429 72.5580541,104.364971 76.7644324,76.5362857 C79.2424865,60.1379429 96.0561622,52.8397143 103.707351,46.6454857" mask="url(#logo_mmr-d)"/>
      <path fill="#FFF101" d="M86.3096757,90.6517143 C110.127405,89.3190286 141.604216,80.9286286 168.081514,68.5796 C182.634162,61.7939429 195.880703,53.6440571 205.950757,44.4611429 C223.940324,28.0667429 212.579946,11.1794857 203.318811,0.0764 C212.560216,1.5944 225.542378,12.6107429 229.78427,21.5570857 C235.217838,33.0189714 236.93827,47.3749143 231.863784,59.5386286 C227.878378,69.0882286 220.665189,77.8847429 211.565838,84.8202286 C207.872432,87.6393714 206.487405,89.1100571 202.257351,91.2352571 C197.064486,93.8375429 192.763405,95.8050286 188.493892,97.3112 C172.232649,103.044114 148.126865,103.911543 131.147459,102.460571 C110.616703,100.706 102.223676,97.7804 86.3096757,90.6517143" mask="url(#logo_mmr-d)"/>
      <path fill="#009949" d="M167.485676,62.2946857 C156.212108,45.3482857 132.729784,40.7982286 106.189351,41.2358857 C89.3401622,41.504 70.8968108,44.0037714 53.7437838,48.1358857 C44.7588649,50.3044571 36.3421622,52.4809143 28.2214054,55.9624571 C18.3407568,60.2010286 6.81464865,64.6288571 0,66.4307429 C14.0041622,51.7357143 50.2752973,22.4048 103.723135,10.6826857 C143.853405,1.89011429 216.048432,-0.451942857 208.626108,29.4506857 C205.788973,40.9046857 184.907027,53.8885143 167.485676,62.2946857" mask="url(#logo_mmr-d)"/>
    </g>
    <polyline fill="#FFF101" points="48.833 74.297 35 76.298 47.19 78.707 44.389 86 54.544 80.197 66.639 82.699 60.718 76.706 71 70.964 57.19 73.059 51.444 67 48.833 74.297"/>
    <polyline fill="#FFF101" points="39.294 104.298 27 105.787 37.757 108.714 35.133 116 44.238 110.509 54.911 113.527 49.78 107.209 59 101.782 46.722 103.367 41.75 97 39.294 104.298"/>
    <polyline fill="#FFF101" points="72.372 120.154 62 120.486 70.906 123.867 68.416 130 76.27 125.934 85.102 129.384 81.049 123.498 89 119.501 78.64 119.922 74.726 114 72.372 120.154"/>
    <path fill="#FFFFFE" d="M201 48.4622977C200.778345 48.2806948 200.770429 48.30833 200.548774 48.1306751 193.7131 42.6075799 184.209653 37.7951046 175.18118 35L170 41.8337939C176.285495 44.1038295 183.703013 47.7674694 189.897472 52.1891038 190.859295 52.8760363 191.999234 53.8630083 192.917518 54.7236478 193.087717 54.8815634 193.044178 54.8539281 193.198544 55 195.791113 53.1208054 199.6107 49.9782866 201 48.4622977M158 30.5081186C145.720528 28.7568203 134.529564 28.3605136 118.885255 30.2325911L115 36.1847405C127.088784 35.1203739 141.783629 35.2826709 153.034183 37L158 30.5081186M99 34L95.9806968 39.0421117C90.6939485 39.990235 77.9875495 42.576747 67.2992954 44.8181263 63.033491 45.7146781 60.8214458 46.3057675 58 47 65.1861789 43.4613976 86.831773 36.2612145 99 34"/>
    <path fill="#009949" d="M167.249271 94.0648267C166.3193 95.7956984 166.794095 96.9098228 167.582805 98.8515823 168.983648 102.313326 166.60967 104.80021 164.125822 105.48858 159.829118 106.682285 152.738576 105.989936 149.285517 101.223075L141.716255 104.402309 131 102.679395C137.223354 102.37699 155.473555 99.0505331 159.727096 96.6432287L144.584648 99.1181763C142.799259 98.6765056 140.684261 97.8051012 139.601256 96.1458518 135.826435 90.8099921 150.439152 88.2355691 156.379983 91.3392012 160.75909 93.6350931 164.510367 94.0767638 167.249271 94.0648267M200.241239 77.0367366C199.73873 78.5810454 200.221455 79.3390873 201.036548 80.6535642 202.488679 83.0002684 202.282927 86.5445176 200.530082 87.8710909 196.331959 91.0605119 190.705445 89.5605566 187.563777 86.6816102L180.481174 91.9475822 174 92C178.641281 90.3387592 191.959738 83.5768641 194.879828 80.7503355L183.792983 86.1292074C182.400204 86.1977537 179.650255 85.7138972 178.645237 84.6816699 175.194942 81.435799 185.87424 76.1012807 190.693574 77.1294758 194.242789 77.8875177 198.179766 77.6738144 200.241239 77.0367366M217.592625 59C217.89949 60.1956469 218.529371 60.6909311 219.922377 61.4029021 222.12696 62.532769 223.60072 64.8544135 222.760879 66.6575574 220.8995 70.6469166 215.589926 69.8459492 211.685472 68.4413543L208.318031 73.6379686 203.040759 75C206.064995 72.8718259 213.849678 65.3458283 214.923706 62.7301088L208.342257 68.828295C207.23189 69.1649335 204.752743 69.3816203 203.456642 68.8592503 199.128229 67.2573156 205.402813 61.279081 209.824093 61.0275695 213.086553 60.8379686 216.203656 59.8706167 217.592625 59"/>
  </g>
</svg>
